<svg width="150" height="150" viewBox="0 0 150 150" fill="none" xmlns="http://www.w3.org/2000/svg">
<path d="M18.483 23.3441C16.6762 20.6305 19.921 17.4113 22.6561 19.2038L73.0619 52.2392C74.0687 52.899 75.3753 52.899 76.3821 52.2392L126.788 19.2038C129.523 17.4113 132.768 20.6305 130.961 23.3441L97.6635 73.353C96.9984 74.3519 96.9984 75.6481 97.6635 76.647L130.961 126.656C132.768 129.37 129.523 132.589 126.788 130.796L76.3821 97.7608C75.3753 97.101 74.0687 97.101 73.0619 97.7608L22.6561 130.796C19.921 132.589 16.6762 129.369 18.483 126.656L51.7805 76.647C52.4456 75.6481 52.4456 74.3519 51.7805 73.353L18.483 23.3441Z" fill="white"/>
</svg>
