<svg width="206" height="206" viewBox="0 0 206 206" fill="none" xmlns="http://www.w3.org/2000/svg">
<path d="M100.837 27.0979C101.959 24.9481 105.035 24.9481 106.157 27.0979L120.773 55.1123C121.226 55.9818 121.226 57.0182 120.773 57.8877L106.157 85.9021C105.035 88.0519 101.959 88.0519 100.837 85.9021L86.2208 57.8877C85.7672 57.0182 85.7672 55.9818 86.2208 55.1123L100.837 27.0979Z" fill="white"/>
<path d="M38.3483 142.824C35.9257 142.928 34.3876 140.264 35.6885 138.217L52.6416 111.552C53.1678 110.724 54.0653 110.206 55.0452 110.164L86.6145 108.815C89.037 108.712 90.5752 111.376 89.2743 113.422L72.3212 140.087C71.795 140.915 70.8975 141.433 69.9176 141.475L38.3483 142.824Z" fill="white"/>
<path d="M169.815 139.078C171.116 141.124 169.577 143.788 167.155 143.685L135.586 142.336C134.606 142.294 133.708 141.776 133.182 140.948L116.229 114.283C114.928 112.236 116.466 109.572 118.889 109.676L150.458 111.025C151.438 111.067 152.335 111.585 152.862 112.413L169.815 139.078Z" fill="white"/>
<path d="M150.5 103C150.5 129.234 129.234 150.5 103 150.5C76.7665 150.5 55.5 129.234 55.5 103C55.5 76.7665 76.7665 55.5 103 55.5C129.234 55.5 150.5 76.7665 150.5 103Z" stroke="white" stroke-width="15" stroke-linecap="round" stroke-linejoin="round"/>
</svg>
