<svg width="150" height="150" viewBox="0 0 150 150" fill="none" xmlns="http://www.w3.org/2000/svg">
<g clip-path="url(#clip0_35_136)">
<path d="M122.5 75C122.5 101.234 101.234 122.5 75 122.5C48.7665 122.5 27.5 101.234 27.5 75C27.5 48.7665 48.7665 27.5 75 27.5C101.234 27.5 122.5 48.7665 122.5 75Z" stroke="white" stroke-width="15" stroke-linecap="round" stroke-linejoin="round"/>
<path d="M6.61861 77.2678C5.23723 76.0715 5.23723 73.9285 6.61861 72.7322L26.036 55.9162C27.979 54.2336 31 55.6138 31 58.184L31 91.816C31 94.3862 27.979 95.7664 26.036 94.0838L6.61861 77.2678Z" fill="white"/>
<path d="M77.2678 143.381C76.0715 144.763 73.9285 144.763 72.7322 143.381L55.9162 123.964C54.2336 122.021 55.6138 119 58.184 119L91.816 119C94.3862 119 95.7664 122.021 94.0838 123.964L77.2678 143.381Z" fill="white"/>
<path d="M143.381 72.7322C144.763 73.9285 144.763 76.0715 143.381 77.2678L123.964 94.0838C122.021 95.7664 119 94.3862 119 91.816L119 58.184C119 55.6138 122.021 54.2336 123.964 55.9162L143.381 72.7322Z" fill="white"/>
<path d="M72.7322 6.61861C73.9285 5.23723 76.0715 5.23723 77.2678 6.61861L94.0838 26.036C95.7664 27.979 94.3862 31 91.816 31H58.184C55.6138 31 54.2336 27.979 55.9162 26.036L72.7322 6.61861Z" fill="white"/>
<path d="M40.0011 45.4176C38.1852 42.718 41.4463 39.5153 44.1951 41.2986L72.6481 59.758C73.6599 60.4145 74.9731 60.4145 75.9849 59.758L104.438 41.2986C107.187 39.5153 110.448 42.718 108.632 45.4177L89.8362 73.3614C89.1678 74.3552 89.1678 75.6448 89.8362 76.6386L108.632 104.582C110.448 107.282 107.187 110.485 104.438 108.701L75.9849 90.242C74.9731 89.5855 73.66 89.5855 72.6481 90.242L44.1951 108.701C41.4463 110.485 38.1852 107.282 40.0011 104.582L58.7968 76.6386C59.4652 75.6448 59.4652 74.3552 58.7968 73.3614L40.0011 45.4176Z" fill="white"/>
</g>
<defs>
<clipPath id="clip0_35_136">
<rect width="150" height="150" fill="white"/>
</clipPath>
</defs>
</svg>
