<svg width="150" height="150" viewBox="0 0 150 150" fill="none" xmlns="http://www.w3.org/2000/svg">
<path fill-rule="evenodd" clip-rule="evenodd" d="M77.8686 9.42304C77.0025 6.59395 72.9975 6.59395 72.1314 9.42304L62.8712 39.6714C62.3193 41.4744 60.2604 42.3272 58.5952 41.4426L30.6585 26.6017C28.0456 25.2136 25.2136 28.0456 26.6017 30.6585L41.4426 58.5952C42.3272 60.2604 41.4744 62.3193 39.6714 62.8712L9.42304 72.1314C6.59395 72.9975 6.59395 77.0025 9.42304 77.8686L39.6714 87.1288C41.4744 87.6807 42.3272 89.7396 41.4426 91.4048L26.6017 119.342C25.2136 121.954 28.0456 124.786 30.6585 123.398L58.5952 108.557C60.2604 107.673 62.3193 108.526 62.8712 110.329L72.1314 140.577C72.9975 143.406 77.0025 143.406 77.8686 140.577L87.1288 110.329C87.6807 108.526 89.7396 107.673 91.4048 108.557L119.342 123.398C121.954 124.786 124.786 121.954 123.398 119.342L108.557 91.4048C107.673 89.7396 108.526 87.6807 110.329 87.1288L140.577 77.8686C143.406 77.0025 143.406 72.9975 140.577 72.1314L110.329 62.8712C108.526 62.3193 107.673 60.2604 108.557 58.5952L123.398 30.6585C124.786 28.0456 121.954 25.2136 119.342 26.6017L91.4048 41.4426C89.7396 42.3272 87.6807 41.4744 87.1288 39.6714L77.8686 9.42304ZM75.2299 97.4364C87.4942 97.4364 97.4364 87.4942 97.4364 75.2299C97.4364 62.9655 87.4942 53.0233 75.2299 53.0233C62.9655 53.0233 53.0233 62.9655 53.0233 75.2299C53.0233 87.4942 62.9655 97.4364 75.2299 97.4364Z" fill="white"/>
</svg>
