<svg width="150" height="150" viewBox="0 0 150 150" fill="none" xmlns="http://www.w3.org/2000/svg">
<g clip-path="url(#clip0_35_107)">
<path d="M72.8371 11.0979C73.9587 8.94813 77.035 8.94813 78.1566 11.0979L92.7728 39.1123C93.2265 39.9818 93.2265 41.0182 92.7728 41.8877L78.1566 69.9021C77.035 72.0519 73.9587 72.0519 72.8371 69.9021L58.2208 41.8877C57.7672 41.0182 57.7672 39.9818 58.2208 39.1123L72.8371 11.0979Z" fill="white"/>
<path d="M10.3483 126.824C7.92575 126.928 6.38759 124.264 7.68852 122.217L24.6416 95.5521C25.1678 94.7245 26.0653 94.2063 27.0452 94.1644L58.6145 92.8152C61.037 92.7117 62.5752 95.3759 61.2743 97.4221L44.3212 124.087C43.795 124.915 42.8975 125.433 41.9176 125.475L10.3483 126.824Z" fill="white"/>
<path d="M141.815 123.078C143.116 125.124 141.577 127.788 139.155 127.685L107.586 126.336C106.606 126.294 105.708 125.776 105.182 124.948L88.2289 98.2826C86.928 96.2364 88.4661 93.5723 90.8887 93.6758L122.458 95.025C123.438 95.0669 124.335 95.585 124.862 96.4127L141.815 123.078Z" fill="white"/>
<path d="M122.5 87C122.5 113.234 101.234 134.5 75 134.5C48.7665 134.5 27.5 113.234 27.5 87C27.5 60.7665 48.7665 39.5 75 39.5C101.234 39.5 122.5 60.7665 122.5 87Z" stroke="white" stroke-width="15" stroke-linecap="round" stroke-linejoin="round"/>
</g>
<defs>
<clipPath id="clip0_35_107">
<rect width="150" height="150" fill="white"/>
</clipPath>
</defs>
</svg>
