<svg width="150" height="150" viewBox="0 0 150 150" fill="none" xmlns="http://www.w3.org/2000/svg">
<mask id="path-1-inside-1_37_48" fill="white">
<path fill-rule="evenodd" clip-rule="evenodd" d="M140 75C140 110.899 110.899 140 75 140C39.1015 140 10 110.899 10 75C10 39.1015 39.1015 10 75 10C110.899 10 140 39.1015 140 75ZM84.3047 54.4794C84.754 55.0186 85 55.6982 85 56.4V93.2277C85 93.9295 84.754 94.6091 84.3047 95.1483L77.3047 103.548C76.1053 104.988 73.8947 104.988 72.6954 103.548L65.6953 95.1483C65.246 94.6091 65 93.9295 65 93.2277V56.4C65 55.6982 65.246 55.0186 65.6953 54.4794L72.6953 46.0794C73.8947 44.6402 76.1052 44.6402 77.3046 46.0794L84.3047 54.4794Z"/>
</mask>
<path fill-rule="evenodd" clip-rule="evenodd" d="M140 75C140 110.899 110.899 140 75 140C39.1015 140 10 110.899 10 75C10 39.1015 39.1015 10 75 10C110.899 10 140 39.1015 140 75ZM84.3047 54.4794C84.754 55.0186 85 55.6982 85 56.4V93.2277C85 93.9295 84.754 94.6091 84.3047 95.1483L77.3047 103.548C76.1053 104.988 73.8947 104.988 72.6954 103.548L65.6953 95.1483C65.246 94.6091 65 93.9295 65 93.2277V56.4C65 55.6982 65.246 55.0186 65.6953 54.4794L72.6953 46.0794C73.8947 44.6402 76.1052 44.6402 77.3046 46.0794L84.3047 54.4794Z" fill="#17151E"/>
<path d="M84.3047 54.4794L86.6093 52.5589L86.6093 52.5589L84.3047 54.4794ZM84.3047 95.1483L86.6093 97.0688L86.6093 97.0688L84.3047 95.1483ZM77.3047 103.548L75 101.628L75 101.628L77.3047 103.548ZM72.6954 103.548L75 101.628L75 101.628L72.6954 103.548ZM65.6953 95.1483L68 93.2277L68 93.2277L65.6953 95.1483ZM65.6953 54.4794L63.3907 52.5589L63.3907 52.5589L65.6953 54.4794ZM72.6953 46.0794L70.3906 44.1589L70.3906 44.1589L72.6953 46.0794ZM77.3046 46.0794L79.6093 44.1589L79.6093 44.1589L77.3046 46.0794ZM75 143C112.555 143 143 112.555 143 75H137C137 109.242 109.242 137 75 137V143ZM7 75C7 112.555 37.4446 143 75 143V137C40.7583 137 13 109.242 13 75H7ZM75 7C37.4446 7 7 37.4446 7 75H13C13 40.7583 40.7583 13 75 13V7ZM143 75C143 37.4446 112.555 7 75 7V13C109.242 13 137 40.7583 137 75H143ZM88 56.4C88 54.9964 87.5079 53.6372 86.6093 52.5589L82 56.4L82 56.4H88ZM88 93.2277V56.4H82V93.2277H88ZM86.6093 97.0688C87.5079 95.9905 88 94.6313 88 93.2277H82L82 93.2277L86.6093 97.0688ZM79.6094 105.469L86.6093 97.0688L82 93.2277L75 101.628L79.6094 105.469ZM70.3907 105.469C72.7895 108.347 77.2106 108.347 79.6094 105.469L75 101.628L75 101.628L70.3907 105.469ZM63.3907 97.0688L70.3907 105.469L75 101.628L68 93.2277L63.3907 97.0688ZM62 93.2277C62 94.6313 62.4921 95.9905 63.3907 97.0688L68 93.2277L68 93.2277H62ZM62 56.4V93.2277H68V56.4H62ZM63.3907 52.5589C62.4921 53.6372 62 54.9964 62 56.4H68L68 56.4L63.3907 52.5589ZM70.3906 44.1589L63.3907 52.5589L68 56.4L75 48L70.3906 44.1589ZM79.6093 44.1589C77.2105 41.2804 72.7894 41.2804 70.3906 44.1589L75 48L75 48L79.6093 44.1589ZM86.6093 52.5589L79.6093 44.1589L75 48L82 56.4L86.6093 52.5589Z" fill="#654ACA" mask="url(#path-1-inside-1_37_48)"/>
</svg>
