<svg width="150" height="150" viewBox="0 0 150 150" fill="none" xmlns="http://www.w3.org/2000/svg">
<path fill-rule="evenodd" clip-rule="evenodd" d="M77.8686 22.3813C77.0025 19.5523 72.9975 19.5523 72.1314 22.3813L65.1523 45.1785C64.6004 46.9815 62.5415 47.8343 60.8763 46.9496L39.8214 35.7646C37.2085 34.3766 34.3765 37.2085 35.7646 39.8214L46.9496 60.8763C47.8342 62.5416 46.9815 64.6004 45.1784 65.1523L22.3813 72.1314C19.5522 72.9975 19.5523 77.0025 22.3813 77.8686L45.1784 84.8477C46.9815 85.3996 47.8342 87.4585 46.9496 89.1237L35.7646 110.179C34.3765 112.792 37.2085 115.623 39.8214 114.235L60.8763 103.05C62.5415 102.166 64.6004 103.019 65.1523 104.822L72.1314 127.619C72.9975 130.448 77.0025 130.448 77.8686 127.619L84.8477 104.822C85.3996 103.019 87.4584 102.166 89.1237 103.05L110.179 114.235C112.791 115.623 115.623 112.792 114.235 110.179L103.05 89.1237C102.166 87.4585 103.019 85.3996 104.822 84.8477L127.619 77.8686C130.448 77.0025 130.448 72.9975 127.619 72.1314L104.822 65.1523C103.019 64.6004 102.166 62.5416 103.05 60.8763L114.235 39.8214C115.623 37.2085 112.791 34.3766 110.179 35.7646L89.1237 46.9496C87.4584 47.8343 85.3996 46.9815 84.8477 45.1785L77.8686 22.3813ZM75.1901 93.5572C85.334 93.5572 93.5572 85.334 93.5572 75.1901C93.5572 65.0463 85.334 56.823 75.1901 56.823C65.0462 56.823 56.823 65.0463 56.823 75.1901C56.823 85.334 65.0462 93.5572 75.1901 93.5572Z" fill="white"/>
<path d="M133.5 75C133.5 107.309 107.309 133.5 75 133.5C42.6913 133.5 16.5 107.309 16.5 75C16.5 42.6913 42.6913 16.5 75 16.5C107.309 16.5 133.5 42.6913 133.5 75Z" stroke="white" stroke-width="15" stroke-linecap="round" stroke-linejoin="round"/>
</svg>
