<svg width="150" height="150" viewBox="0 0 150 150" fill="none" xmlns="http://www.w3.org/2000/svg">
<path fill-rule="evenodd" clip-rule="evenodd" d="M96.8336 36.1771L101.81 39.0547L106.801 36.2027L140 17.2318V100.861L75 138.448L10 100.861L10 17.2318L43.1991 36.2027L48.1901 39.0547L53.1664 36.1771L75 23.5516L96.8336 36.1771ZM150 0L140 5.71429L101.84 27.5203L75 12L48.1605 27.5203L10 5.71429L2.82652e-06 0L2.52122e-06 11.5175L0 106.63L75 150L150 106.63V11.5175V0ZM47.5 60L64 69.5263V81.0733L47.5 71.547L32 80.4959V68.9489L47.5 60ZM101.5 60L118 69.5263V81.0733L101.5 71.547L86 80.4959V68.9489L101.5 60Z" fill="#654ACA"/>
</svg>
