<svg width="158" height="162" viewBox="0 0 158 162" fill="none" xmlns="http://www.w3.org/2000/svg">
<path d="M4.99228 5.26351L2 3.55364V7L2 113.63V114.784L2.99882 115.362L77.9988 158.731L79 159.31L80.0012 158.731L155.001 115.362L156 114.784V113.63V7V3.55364L153.008 5.26351L105.845 32.2134L80.0012 17.2686L79 16.6897L77.9988 17.2686L52.1546 32.2134L4.99228 5.26351Z" stroke="#EBE7F9" stroke-width="4"/>
<path d="M102.335 40.5801L105.819 42.5944L109.312 40.598L147 19.0623V109.592L79 148.914L11 109.592L11 19.0623L48.6875 40.598L52.1812 42.5944L55.6646 40.5801L79 27.0861L102.335 40.5801Z" stroke="#EBE7F9" stroke-width="14"/>
<path d="M122 76.5263L105.5 67L90 75.9489V87.4959L105.5 78.547L122 88.0733V76.5263Z" fill="#6346CE"/>
<path d="M68 76.5263L51.5 67L36 75.9489V87.4959L51.5 78.547L68 88.0733V76.5263Z" fill="#6346CE"/>
<path d="M124 75.3716L123 74.7942L106.5 65.2679L105.5 64.6906L104.5 65.2679L89 74.2169L88 74.7942V75.9489V87.4959V90.96L91 89.228L105.5 80.8564L121 89.8053L124 91.5374V88.0733V76.5263V75.3716ZM70 76.5263V75.3716L69 74.7942L52.5 65.2679L51.5 64.6906L50.5 65.2679L35 74.2169L34 74.7942V75.9489V87.4959V90.96L37 89.228L51.5 80.8564L67 89.8053L70 91.5374V88.0733V76.5263Z" stroke="#EBE7F9" stroke-width="4"/>
<path fill-rule="evenodd" clip-rule="evenodd" d="M100.834 43.1771L105.81 46.0547L110.801 43.2027L144 24.2318V107.861L79 145.448L14 107.861L14 24.2318L47.1991 43.2027L52.1901 46.0547L57.1664 43.1771L79 30.5516L100.834 43.1771ZM154 7L144 12.7143L105.84 34.5203L79 19L52.1605 34.5203L14 12.7143L4 7L4 18.5175L4 113.63L79 157L154 113.63V18.5175V7ZM51.5 67L68 76.5263V88.0733L51.5 78.547L36 87.4959V75.9489L51.5 67ZM105.5 67L122 76.5263V88.0733L105.5 78.547L90 87.4959V75.9489L105.5 67Z" fill="#654ACA"/>
</svg>
